<svg xmlns="http://www.w3.org/2000/svg" width="1200" height="420" viewBox="0 0 1200 420" role="img" aria-label="LittleCoder banner">
  <defs>
    <linearGradient id="bg" x1="0" y1="0" x2="1" y2="1">
      <stop offset="0%" stop-color="#fff5dd"/>
      <stop offset="100%" stop-color="#f4efe6"/>
    </linearGradient>
    <linearGradient id="accent" x1="0" y1="0" x2="1" y2="0">
      <stop offset="0%" stop-color="#bf5f2f"/>
      <stop offset="100%" stop-color="#2f8f4e"/>
    </linearGradient>
  </defs>
  <rect width="1200" height="420" fill="url(#bg)"/>
  <circle cx="1030" cy="90" r="90" fill="#ffffff" opacity="0.65"/>
  <circle cx="1120" cy="320" r="120" fill="#ffffff" opacity="0.4"/>
  <rect x="70" y="70" width="470" height="280" rx="28" fill="#fffdf8" stroke="#d8c9b5" stroke-width="2"/>
  <rect x="105" y="115" width="400" height="18" rx="9" fill="#bf5f2f" opacity="0.18"/>
  <rect x="105" y="155" width="320" height="18" rx="9" fill="#2f8f4e" opacity="0.18"/>
  <rect x="105" y="195" width="360" height="18" rx="9" fill="#bf5f2f" opacity="0.12"/>
  <rect x="105" y="245" width="120" height="56" rx="14" fill="#bf5f2f"/>
  <rect x="240" y="245" width="120" height="56" rx="14" fill="#2f8f4e"/>
  <rect x="375" y="245" width="120" height="56" rx="14" fill="#1f1a17"/>
  <text x="610" y="150" fill="#1f1a17" font-family="Georgia, 'Times New Roman', serif" font-size="58" font-weight="700">LittleCoder</text>
  <text x="610" y="205" fill="#7b5e45" font-family="Georgia, 'Times New Roman', serif" font-size="28">Local AI Coding Worker with Visible Execution</text>
  <rect x="610" y="235" width="420" height="8" rx="4" fill="url(#accent)"/>
  <text x="610" y="285" fill="#1f1a17" font-family="Georgia, 'Times New Roman', serif" font-size="24">Studio-first • Safe factory workspace • Remote progress narration</text>
  <text x="610" y="335" fill="#7b5e45" font-family="Georgia, 'Times New Roman', serif" font-size="20">Watch software get built step by step.</text>
</svg>
